<svg width="1000" height="1000" viewBox="0 0 1000 1000" fill="none" xmlns="http://www.w3.org/2000/svg">
<g>
<path d="M723.554 61.0578C797.541 61.0578 866.865 89.6776 919.228 142.041C971.592 194.405 1000.21 263.94 1000 337.928C1000 411.916 971.168 481.451 918.804 533.815L519.823 931.312C514.311 936.824 506.891 939.58 499.683 939.58C492.475 939.58 485.055 936.612 479.543 931.1L81.4094 532.967C29.0457 480.603 0.00192378 411.28 0.00192378 337.292C-0.210075 263.305 28.6217 193.769 80.9854 141.405C133.137 89.2536 202.673 60.4218 276.448 60.4218C350.436 60.4218 420.183 89.4656 472.547 141.829L500.319 169.601L527.667 142.253C580.03 89.8896 649.566 61.0578 723.554 61.0578Z" fill="black" stroke="#000000"/>
</g>
</svg>
