<svg width="1000" height="1000" viewBox="0 0 1000 1000" fill="none" xmlns="http://www.w3.org/2000/svg">
<path d="M978.294 455.166C997.978 435.983 1004.93 407.829 996.436 381.658C987.926 355.487 965.759 336.804 938.526 332.839L696.396 297.657C686.083 296.155 677.173 289.688 672.567 280.336L564.317 60.9331C552.163 36.2836 527.493 20.9652 500 20.9652C472.527 20.9652 447.857 36.2836 435.703 60.9331L327.433 280.336C322.827 289.688 313.897 296.155 303.584 297.657L61.4537 332.859C34.2411 336.804 12.0745 355.487 3.56427 381.658C-4.92592 407.829 2.02242 435.983 21.706 455.166L196.896 625.931C204.365 633.22 207.789 643.713 206.027 653.965L164.678 895.114C160.032 922.207 170.945 949.059 193.192 965.238C215.418 981.438 244.353 983.54 268.722 970.705L485.262 856.848C494.493 852.002 505.507 852.002 514.738 856.848L731.298 970.705C741.87 976.272 753.324 979.015 764.718 979.015C779.515 979.015 794.253 974.389 806.828 965.238C829.075 949.059 839.988 922.207 835.342 895.114L793.973 653.985C792.211 643.712 795.635 633.24 803.104 625.951L978.294 455.166Z" fill="black"/>
</svg>
